<mxfile host="app.diagrams.net" modified="2022-08-01T01:56:47.266Z" agent="5.0 (Windows NT 10.0; Win64; x64) AppleWebKit/537.36 (KHTML, like Gecko) Chrome/103.0.0.0 Safari/537.36" etag="2wQXu3w5uB5Pm33kXMsS" version="20.1.1" type="github">
  <diagram id="B0fqcwgeFRh-pNHlIbTc" name="第 1 页">
    <mxGraphModel dx="1422" dy="804" grid="1" gridSize="10" guides="1" tooltips="1" connect="1" arrows="1" fold="1" page="1" pageScale="1" pageWidth="827" pageHeight="1169" math="0" shadow="0">
      <root>
        <mxCell id="0" />
        <mxCell id="1" parent="0" />
        <mxCell id="0vhp0cnmIKAQySKpd1iD-15" style="edgeStyle=orthogonalEdgeStyle;rounded=0;orthogonalLoop=1;jettySize=auto;html=1;entryX=1;entryY=0.5;entryDx=0;entryDy=0;" edge="1" parent="1" source="0vhp0cnmIKAQySKpd1iD-1" target="0vhp0cnmIKAQySKpd1iD-14">
          <mxGeometry relative="1" as="geometry" />
        </mxCell>
        <mxCell id="0vhp0cnmIKAQySKpd1iD-1" value="巨量引擎广告投放" style="rounded=1;whiteSpace=wrap;html=1;" vertex="1" parent="1">
          <mxGeometry x="350" y="460" width="120" height="60" as="geometry" />
        </mxCell>
        <mxCell id="0vhp0cnmIKAQySKpd1iD-13" style="edgeStyle=orthogonalEdgeStyle;rounded=0;orthogonalLoop=1;jettySize=auto;html=1;" edge="1" parent="1" source="0vhp0cnmIKAQySKpd1iD-2" target="0vhp0cnmIKAQySKpd1iD-1">
          <mxGeometry relative="1" as="geometry" />
        </mxCell>
        <mxCell id="0vhp0cnmIKAQySKpd1iD-2" value="测试是否绑定成功" style="rounded=1;whiteSpace=wrap;html=1;" vertex="1" parent="1">
          <mxGeometry x="550" y="460" width="120" height="60" as="geometry" />
        </mxCell>
        <mxCell id="0vhp0cnmIKAQySKpd1iD-12" style="edgeStyle=orthogonalEdgeStyle;rounded=0;orthogonalLoop=1;jettySize=auto;html=1;" edge="1" parent="1" source="0vhp0cnmIKAQySKpd1iD-3" target="0vhp0cnmIKAQySKpd1iD-2">
          <mxGeometry relative="1" as="geometry" />
        </mxCell>
        <mxCell id="0vhp0cnmIKAQySKpd1iD-3" value="触发绑定域名" style="rounded=1;whiteSpace=wrap;html=1;" vertex="1" parent="1">
          <mxGeometry x="550" y="250" width="120" height="60" as="geometry" />
        </mxCell>
        <mxCell id="0vhp0cnmIKAQySKpd1iD-10" style="edgeStyle=orthogonalEdgeStyle;rounded=0;orthogonalLoop=1;jettySize=auto;html=1;entryX=0.5;entryY=0;entryDx=0;entryDy=0;" edge="1" parent="1" source="0vhp0cnmIKAQySKpd1iD-4" target="0vhp0cnmIKAQySKpd1iD-3">
          <mxGeometry relative="1" as="geometry" />
        </mxCell>
        <mxCell id="0vhp0cnmIKAQySKpd1iD-4" value="解析域名" style="rounded=1;whiteSpace=wrap;html=1;" vertex="1" parent="1">
          <mxGeometry x="550" y="100" width="120" height="60" as="geometry" />
        </mxCell>
        <mxCell id="0vhp0cnmIKAQySKpd1iD-11" style="edgeStyle=orthogonalEdgeStyle;rounded=0;orthogonalLoop=1;jettySize=auto;html=1;entryX=0;entryY=0.5;entryDx=0;entryDy=0;" edge="1" parent="1" source="0vhp0cnmIKAQySKpd1iD-5" target="0vhp0cnmIKAQySKpd1iD-3">
          <mxGeometry relative="1" as="geometry" />
        </mxCell>
        <mxCell id="0vhp0cnmIKAQySKpd1iD-5" value="落地页与商品绑定" style="rounded=1;whiteSpace=wrap;html=1;" vertex="1" parent="1">
          <mxGeometry x="350" y="250" width="120" height="60" as="geometry" />
        </mxCell>
        <mxCell id="0vhp0cnmIKAQySKpd1iD-9" style="edgeStyle=orthogonalEdgeStyle;rounded=0;orthogonalLoop=1;jettySize=auto;html=1;entryX=0.5;entryY=1;entryDx=0;entryDy=0;" edge="1" parent="1" source="0vhp0cnmIKAQySKpd1iD-6" target="0vhp0cnmIKAQySKpd1iD-5">
          <mxGeometry relative="1" as="geometry" />
        </mxCell>
        <mxCell id="0vhp0cnmIKAQySKpd1iD-6" value="添加商品" style="rounded=1;whiteSpace=wrap;html=1;" vertex="1" parent="1">
          <mxGeometry x="140" y="320" width="120" height="60" as="geometry" />
        </mxCell>
        <mxCell id="0vhp0cnmIKAQySKpd1iD-8" style="edgeStyle=orthogonalEdgeStyle;rounded=0;orthogonalLoop=1;jettySize=auto;html=1;entryX=0.5;entryY=0;entryDx=0;entryDy=0;" edge="1" parent="1" source="0vhp0cnmIKAQySKpd1iD-7" target="0vhp0cnmIKAQySKpd1iD-5">
          <mxGeometry relative="1" as="geometry" />
        </mxCell>
        <mxCell id="0vhp0cnmIKAQySKpd1iD-7" value="上传落地页" style="rounded=1;whiteSpace=wrap;html=1;" vertex="1" parent="1">
          <mxGeometry x="140" y="180" width="120" height="60" as="geometry" />
        </mxCell>
        <mxCell id="0vhp0cnmIKAQySKpd1iD-14" value="查看实时数据" style="rounded=1;whiteSpace=wrap;html=1;" vertex="1" parent="1">
          <mxGeometry x="140" y="460" width="120" height="60" as="geometry" />
        </mxCell>
      </root>
    </mxGraphModel>
  </diagram>
</mxfile>
